<?xml version="1.0" encoding="UTF-8"?>
<svg id="Layer_1" data-name="Layer 1" xmlns="http://www.w3.org/2000/svg" viewBox="0 0 24 24">
  <defs>
    <style>
      .cls-1 {
        fill: #f2f2f2;
        fill-rule: evenodd;
        stroke-width: 0px;
      }
    </style>
  </defs>
  <path class="cls-1" d="M12.21,21.9c-1.96,0-2.87-.29-4.46-1.43-1,1.29-4.18,2.3-4.32.57,0-1.29-.29-2.39-.61-3.58-.39-1.47-.83-3.11-.83-5.48C2,6.31,6.65,2.04,12.16,2.04s9.84,4.47,9.84,9.99c.02,5.43-4.36,9.84-9.79,9.87ZM12.3,6.94c-2.68-.14-4.78,1.72-5.24,4.63-.38,2.41.3,5.35.87,5.5.28.07.97-.5,1.41-.93.72.5,1.56.79,2.43.86,2.78.13,5.16-1.98,5.34-4.76.11-2.78-2.03-5.14-4.81-5.3h0Z"/>
</svg>