<svg width="18" height="16" viewBox="0 0 18 16" fill="none" xmlns="http://www.w3.org/2000/svg">
<path d="M1.24317 6.83094C5.90817 4.79894 9.01813 3.45919 10.5731 2.81194C15.0181 0.963691 15.9406 0.642692 16.5431 0.631942C16.6756 0.629692 16.9706 0.662441 17.1631 0.818191C17.3231 0.949441 17.3681 1.12694 17.3906 1.25144C17.4106 1.37594 17.4382 1.65969 17.4157 1.88119C17.1757 4.41119 16.1332 10.5507 15.6032 13.3844C15.3807 14.5835 14.9381 14.9855 14.5106 15.0247C13.5806 15.1102 12.8756 14.4107 11.9756 13.8209C10.5681 12.8977 9.77315 12.3232 8.40565 11.4224C6.82565 10.3814 7.85062 9.80919 8.75062 8.87419C8.98562 8.62944 13.0806 4.90569 13.1581 4.56794C13.1681 4.52569 13.1781 4.36819 13.0831 4.28519C12.9906 4.20194 12.8531 4.23044 12.7531 4.25294C12.6106 4.28494 10.3631 5.77194 6.00306 8.71369C5.36556 9.15219 4.78807 9.36594 4.26807 9.35469C3.69808 9.34244 2.59815 9.03169 1.78065 8.76619C0.780648 8.44044 -0.016891 8.26819 0.053109 7.71494C0.088109 7.42694 0.485672 7.13219 1.24317 6.83094Z" fill="#229ED9"/>
</svg>
