<svg width="32" height="32" viewBox="0 0 32 32" fill="none" xmlns="http://www.w3.org/2000/svg">
<circle cx="16" cy="16" r="16" fill="#C9181E"/>
<circle cx="16" cy="16" r="16" fill="#C9181E"/>
<path d="M11.1712 21.792V10.2087C11.1712 7.91699 10.2115 7.12533 8 7.12533V6.41699H22.4375L22.6044 11.2503H21.5613C21.0188 8.45866 19.6418 7.79199 16.9713 7.79199H14.426V21.792C14.426 24.0837 15.3857 24.8753 17.5972 24.8753V25.5837H8V24.8753C10.2115 24.8753 11.1712 24.0837 11.1712 21.792Z" fill="white"/>
<path d="M25.0369 23.375C25.0369 24.8333 23.8685 26 22.4081 26C20.9477 26 19.7793 24.8333 19.7793 23.375C19.7793 21.9167 20.9477 20.75 22.4081 20.75C23.8685 20.75 25.0369 21.9167 25.0369 23.375Z" fill="white"/>
</svg>
