<?xml version="1.0" encoding="UTF-8"?><svg id="a" xmlns="http://www.w3.org/2000/svg" width="80" height="40" viewBox="0 0 80 40"><defs><style>.b{fill:#f2f2f2;}</style></defs><path class="b" d="M52,19.25h15.02c-.3-.49-.9-1.08-1.79-1.97l-1.76-1.75c-.29-.29-.3-.77,0-1.06,.29-.29,.77-.3,1.06,0l1.76,1.75c1.48,1.46,2.29,2.27,2.43,3.37,.01,.09,.03,.36,.03,.41,0,.05-.01,.32-.03,.41-.14,1.1-.95,1.91-2.43,3.38l-1.76,1.75c-.15,.14-.34,.22-.53,.22s-.39-.07-.53-.22c-.29-.29-.29-.77,0-1.06l1.76-1.75c.89-.88,1.49-1.48,1.79-1.97h-15.02c-.41,0-.75-.34-.75-.75s.34-.75,.75-.75Z"/><path class="b" d="M12,19.25h15.02c-.3-.49-.9-1.08-1.79-1.97l-1.76-1.75c-.29-.29-.3-.77,0-1.06,.29-.29,.77-.3,1.06,0l1.76,1.75c1.48,1.46,2.29,2.27,2.43,3.37,.01,.09,.03,.36,.03,.41,0,.05-.01,.32-.03,.41-.14,1.1-.95,1.91-2.43,3.38l-1.76,1.75c-.15,.14-.34,.22-.53,.22s-.39-.07-.53-.22c-.29-.29-.29-.77,0-1.06l1.76-1.75c.89-.88,1.49-1.48,1.79-1.97H12c-.41,0-.75-.34-.75-.75s.34-.75,.75-.75Z"/></svg>