<?xml version="1.0" encoding="UTF-8"?><svg id="a" xmlns="http://www.w3.org/2000/svg" width="35" height="16" viewBox="0 0 35 16"><defs><style>.b{fill:#fff;}.c{fill:#c9181e;}</style></defs><path class="c" d="M0,1C0,.45,.45,0,1,0H34c.55,0,1,.45,1,1V15c0,.55-.45,1-1,1H1c-.55,0-1-.45-1-1V1Z"/><circle class="b" cx="6" cy="8" r="2"/><g><path class="b" d="M11.91,4.31h1.28v6.12h2.99v1.07h-4.26V4.31Z"/><path class="b" d="M17.18,4.43c0-.43,.33-.72,.78-.72s.78,.29,.78,.72-.33,.72-.78,.72-.78-.3-.78-.72Zm.15,1.66h1.27v5.4h-1.27V6.1Z"/><path class="b" d="M19.53,6.1h1.29l.86,2.8c.15,.53,.31,1.09,.46,1.63h.04c.15-.54,.31-1.1,.46-1.63l.86-2.8h1.22l-1.83,5.4h-1.47l-1.88-5.4Z"/><path class="b" d="M25.23,8.8c0-1.76,1.22-2.84,2.49-2.84,1.46,0,2.23,1.06,2.23,2.57,0,.24-.03,.48-.06,.62h-3.43c.11,.96,.72,1.5,1.59,1.5,.46,0,.86-.14,1.25-.39l.43,.79c-.51,.35-1.17,.58-1.85,.58-1.49,0-2.66-1.05-2.66-2.83Zm3.63-.52c0-.83-.37-1.34-1.11-1.34-.63,0-1.18,.47-1.29,1.34h2.4Z"/></g></svg>