<svg width="24" height="24" viewBox="0 0 24 24" fill="none" xmlns="http://www.w3.org/2000/svg">
<path d="M8.84766 2.80176C10.6452 1.20397 13.3548 1.20397 15.1523 2.80176L15.3672 2.99316C16.0965 3.64147 17.0388 3.9999 18.0146 4C20.2155 4 22 5.78453 22 7.98535V13C22 16.7497 21.9998 18.6251 21.0449 19.9395C20.7366 20.3638 20.3629 20.7366 19.9385 21.0449C18.6242 21.9997 16.7496 22 13 22H11C7.25039 22 5.37584 21.9997 4.06152 21.0449C3.63715 20.7366 3.26343 20.3638 2.95508 19.9395C2.00016 18.6251 2 16.7497 2 13V7.98535C2 5.78453 3.78453 4 5.98535 4C6.96117 3.9999 7.90347 3.64147 8.63281 2.99316L8.84766 2.80176ZM12 8.25C9.37665 8.25 7.25 10.3766 7.25 13C7.25 15.6234 9.37665 17.75 12 17.75C14.6234 17.75 16.75 15.6234 16.75 13C16.75 10.3766 14.6234 8.25 12 8.25ZM12 9.75C13.7949 9.75 15.25 11.2051 15.25 13C15.25 14.7949 13.7949 16.25 12 16.25C10.2051 16.25 8.75 14.7949 8.75 13C8.75 11.2051 10.2051 9.75 12 9.75ZM18 7C17.4477 7 17 7.44772 17 8C17 8.55228 17.4477 9 18 9C18.5523 9 19 8.55228 19 8C19 7.44772 18.5523 7 18 7Z" fill="#fff"/>
</svg>
