<?xml version="1.0" encoding="UTF-8"?>
<svg id="Layer_1" data-name="Layer 1" xmlns="http://www.w3.org/2000/svg" viewBox="0 0 24 24">
  <defs>
    <style>
      .cls-1 {
        fill: #f2f2f2;
        stroke-width: 0px;
      }
    </style>
  </defs>
  <path class="cls-1" d="M12,1C5.92,1,1,5.92,1,12c0,3.12,1.3,5.94,3.38,7.94,1.98,1.9,4.66,3.06,7.62,3.06s5.64-1.16,7.62-3.06c2.08-2,3.38-4.82,3.38-7.94,0-6.08-4.92-11-11-11ZM5.79,19.12c.44-1.32,1.68-2.26,3.14-2.26h6.14c1.47,0,2.7.95,3.14,2.26-1.67,1.45-3.83,2.34-6.22,2.34s-4.55-.89-6.21-2.34ZM19.36,17.93c-.82-1.55-2.42-2.61-4.29-2.61h-6.14c-1.87,0-3.47,1.06-4.29,2.61-1.31-1.62-2.11-3.69-2.11-5.94,0-5.22,4.24-9.46,9.47-9.46s9.47,4.23,9.47,9.47c0,2.25-.79,4.31-2.11,5.94h0Z"/>
  <path class="cls-1" d="M12,4.07c-2.69,0-4.86,2.17-4.86,4.86s2.17,4.86,4.86,4.86,4.86-2.17,4.86-4.86-2.17-4.86-4.86-4.86ZM12,12.26c-1.83,0-3.33-1.48-3.33-3.33s1.48-3.33,3.33-3.33,3.33,1.48,3.33,3.33-1.48,3.33-3.33,3.33Z"/>
</svg>