<?xml version="1.0" encoding="UTF-8"?>
<svg id="Layer_1" data-name="Layer 1" xmlns="http://www.w3.org/2000/svg" viewBox="0 0 24 24">
  <defs>
    <style>
      .cls-1 {
        fill: #202020;
        stroke-width: 0px;
      }
    </style>
  </defs>
  <path class="cls-1" d="M23.53,21.47l-4-4c-.29-.29-.77-.29-1.06,0-.29.29-.29.77,0,1.06l4,4c.29.29.77.29,1.06,0s.29-.77,0-1.06Z"/>
  <path class="cls-1" d="M11,2.25c-4.28,0-7.75,3.47-7.75,7.75s3.47,7.75,7.75,7.75,7.75-3.47,7.75-7.75-3.47-7.75-7.75-7.75ZM11,16.25c-3.45,0-6.25-2.8-6.25-6.25s2.8-6.25,6.25-6.25,6.25,2.8,6.25,6.25-2.8,6.25-6.25,6.25Z"/>
</svg>