<?xml version="1.0" encoding="UTF-8"?><svg id="a" xmlns="http://www.w3.org/2000/svg" width="8" height="5" viewBox="0 0 8 5"><defs><style>.b{fill:#202020;}</style></defs><path class="b" d="M4,4.75c-.1,0-.2,0-.3-.02-.8-.13-1.31-.77-2.24-1.94L.41,1.47c-.26-.32-.2-.8,.12-1.05,.32-.26,.8-.2,1.05,.12l1.05,1.32c.58,.73,1.07,1.35,1.29,1.39,.05,0,.09,0,.14,0,.22-.03,.72-.66,1.29-1.39l1.05-1.32c.26-.32,.73-.38,1.05-.12,.33,.26,.38,.73,.12,1.05l-1.05,1.32c-.93,1.17-1.44,1.81-2.23,1.94-.1,.02-.2,.02-.31,.02Z"/></svg>