<?xml version="1.0" encoding="UTF-8"?><svg xmlns="http://www.w3.org/2000/svg" width="24" height="24" viewBox="0 0 24 24"><defs><style>.c{fill:#202020;}</style></defs><g id="a"/><g id="b"><path class="c" d="M5.08,18.92c-.07-.07-.14-.15-.2-.23-.48-.66-.38-1.47-.21-2.95l.19-1.68c.05-.41,.42-.71,.83-.66,.41,.05,.71,.42,.66,.83l-.19,1.68c-.11,.92-.2,1.71-.07,1.9,.03,.04,.06,.07,.1,.1,.18,.13,.97,.04,1.89-.07l1.68-.19c.41-.05,.78,.25,.83,.66,.05,.41-.25,.78-.66,.83l-1.68,.19c-1.48,.17-2.29,.26-2.95-.21-.08-.06-.16-.13-.23-.2Z"/><path class="c" d="M19.01,4.99c.07,.07,.14,.15,.2,.23,.48,.66,.38,1.47,.21,2.95l-.19,1.68c-.05,.41-.42,.71-.83,.66-.41-.05-.71-.42-.66-.83l.19-1.68c.11-.92,.2-1.71,.07-1.9-.03-.04-.06-.07-.1-.1-.18-.13-.97-.04-1.89,.07l-1.68,.19c-.41,.05-.78-.25-.83-.66-.05-.41,.25-.78,.66-.83l1.68-.19c1.48-.17,2.29-.26,2.95,.21,.08,.06,.16,.13,.23,.2Z"/></g></svg>