<?xml version="1.0" encoding="UTF-8"?>
<svg id="Layer_1" data-name="Layer 1" xmlns="http://www.w3.org/2000/svg" version="1.1" viewBox="0 0 32 32">
  <defs>
    <style>
      .cls-1 {
        fill: #c9181e;
      }

      .cls-1, .cls-2 {
        stroke-width: 0px;
      }

      .cls-2 {
        fill: #fff;
      }
    </style>
  </defs>
  <circle class="cls-1" cx="16" cy="16" r="16"/>
  <circle class="cls-1" cx="16" cy="16" r="16"/>
  <path class="cls-2" d="M11.2,21.8v-11.6c0-2.3-1-3.1-3.2-3.1v-.7h14.4l.2,4.8h-1c-.5-2.8-1.9-3.5-4.6-3.5h-2.5v14c0,2.3,1,3.1,3.2,3.1v.7h-9.6v-.7c2.2,0,3.2-.8,3.2-3.1Z"/>
  <path class="cls-2" d="M25,23.4c0,1.5-1.2,2.6-2.6,2.6s-2.6-1.2-2.6-2.6,1.2-2.6,2.6-2.6,2.6,1.2,2.6,2.6Z"/>
</svg>