<?xml version="1.0" encoding="UTF-8"?>
<svg id="Layer_1" data-name="Layer 1" xmlns="http://www.w3.org/2000/svg" xmlns:xlink="http://www.w3.org/1999/xlink" viewBox="0 0 286 36">
  <defs>
    <style>
      .cls-1 {
        fill: #c9181e;
      }

      .cls-1, .cls-2, .cls-3 {
        stroke-width: 0px;
      }

      .cls-4 {
        mask: url(#mask);
      }

      .cls-2 {
        fill: #000;
      }

      .cls-5 {
        fill: none;
        stroke: #202020;
        stroke-width: .6px;
      }

      .cls-3 {
        fill: #fff;
      }

      .cls-6 {
        mask: url(#mask-3);
      }

      .cls-7 {
        mask: url(#mask-2);
      }

      .cls-8 {
        mask: url(#mask-5);
      }

      .cls-9 {
        mask: url(#mask-4);
      }

      .cls-10 {
        mask: url(#mask-1);
      }

      .cls-11 {
        mask: url(#mask-7);
      }

      .cls-12 {
        mask: url(#mask-6);
      }
    </style>
    <mask id="mask" x="-1" y="-1" width="288" height="37" maskUnits="userSpaceOnUse">
      <g id="path-1-outside-1_3001_17004" data-name="path-1-outside-1 3001 17004">
        <rect class="cls-3" x="-1" y="-1" width="288" height="37"/>
        <path class="cls-2" d="M24.02,11.03V3.14h-12.55v28.63h5.65v2.55H0v-2.55h5.65V3.14H0V.58h28.18v10.45h-4.16Z"/>
        <path class="cls-2" d="M64.63,34.66h-11.24v-3.08c-2.5,2.55-6.9,3.89-10.58,3.89-8.32,0-12.61-5.92-12.61-11.21,0-6.15,4.82-12.31,13.14-12.31,4.1,0,7.79,1.34,10.11,4.18v-5.28c0-6.68-4.22-8.36-7.79-8.36-5.11,0-8.98,3.14-9.63,3.72l-2.14-2.79C37.34.93,40.67.06,45.43.06c13.26,0,13.44,7.78,13.44,16.08v15.91h5.77v2.61ZM53.4,20.9c-.95-2.61-3.33-5.86-7.49-5.86-5.11,0-9.69,3.31-9.69,9.29,0,4.99,4.46,8.01,8.74,8.01,2.97,0,6.84-1.74,8.44-5.57v-5.86Z"/>
        <path class="cls-2" d="M67.54,11.03V.87h2.62v2.55l-.18.99h.48l.36-1.05c1.78-1.74,4.46-3.37,9.39-3.37,8.68,0,11.77,5.05,11.77,8.71,0,2.21-.48,6.97-7.91,7.95v.46c5.35.06,10.17,3.37,10.17,8.65s-5.29,9.7-15.76,9.7c-5.77,0-10.88-1.51-14.09-7.14l3.21-2.61c1.37,4.76,5.89,7.43,11.65,7.43s8.5-3.95,8.5-7.26c0-7.14-6.36-7.43-9.87-7.43h-2.44v-2.32h2.32c4.52,0,8.5-1.97,8.5-7.03,0-3.6-2.38-6.39-6.12-6.39-6.36,0-10.05,3.31-9.93,8.25h-2.68v.06Z"/>
        <path class="cls-2" d="M104.77,18.46c0,3.77,1.07,14.17,11.83,14.17,4.76,0,8.5-1.63,12.43-5.46l1.9,1.97c-3.51,4.01-9.57,6.27-14.81,6.27-8.68,0-18.02-5.28-18.02-17.83S106.79.06,114.64.06c8.44,0,16.89,5.57,16.29,18.41h-26.16ZM124.45,16.14c0-8.71-4.34-13.82-9.99-13.82s-9.99,6.15-9.69,13.82h19.68Z"/>
        <path class="cls-2" d="M142.17,32.11h5.59V3.48h-9.57v7.61h-4.1V.93h33.24v10.16h-4.16V3.48h-9.51v28.63h5.59v2.55h-17.06v-2.55Z"/>
        <path class="cls-2" d="M204.3,34.66h-11.24v-3.08c-2.5,2.55-6.9,3.89-10.58,3.89-8.32,0-12.6-5.92-12.6-11.21,0-6.15,4.82-12.31,13.08-12.31,4.1,0,7.79,1.34,10.11,4.18v-5.28c0-6.68-4.22-8.36-7.79-8.36-5.11,0-8.98,3.14-9.63,3.72l-2.08-2.85c3.51-2.5,6.84-3.37,11.54-3.37,13.26,0,13.44,7.72,13.44,16.08v15.91h5.77v2.67ZM193.01,20.9c-.95-2.61-3.33-5.86-7.49-5.86-5.11,0-9.69,3.31-9.69,9.29,0,4.99,4.46,8.01,8.74,8.01,2.97,0,6.84-1.74,8.44-5.57v-5.86Z"/>
        <path class="cls-2" d="M230.29.99v5.34h.36c1.72-4.01,4.16-6.15,7.97-6.15.95,0,3.86.23,5.59,2.44l-2.97,4.7c-1.49-2.21-3.27-2.73-4.76-2.73-3.39,0-6.24,4.59-6.24,9.7v17.88h5.65v2.55h-17.07v-2.55h5.65V3.54h-5.65V.99h11.48Z"/>
        <path class="cls-2" d="M258.05.75v22.65c0,1.74,0,8.94,7.55,8.94,4.76,0,8.86-2.85,8.86-9.7V3.31h-5.65V.75h11.48v31.18h5.65v2.55h-11.48v-2.73l.36-1.68h-.42l-.89,1.63c-3.27,3.37-7.31,3.72-10.11,3.72-11.24,0-11.24-9.64-11.24-12.37V3.31h-5.65V.75h11.53Z"/>
      </g>
    </mask>
    <mask id="mask-1" x="-1" y="-1" width="288" height="37" maskUnits="userSpaceOnUse">
      <g id="path-1-outside-1_3001_17004-2" data-name="path-1-outside-1 3001 17004">
        <rect class="cls-3" x="-1" y="-1" width="288" height="37"/>
        <path class="cls-2" d="M24.02,11.03V3.14h-12.55v28.63h5.65v2.55H0v-2.55h5.65V3.14H0V.58h28.18v10.45h-4.16Z"/>
        <path class="cls-2" d="M64.63,34.66h-11.24v-3.08c-2.5,2.55-6.9,3.89-10.58,3.89-8.32,0-12.61-5.92-12.61-11.21,0-6.15,4.82-12.31,13.14-12.31,4.1,0,7.79,1.34,10.11,4.18v-5.28c0-6.68-4.22-8.36-7.79-8.36-5.11,0-8.98,3.14-9.63,3.72l-2.14-2.79C37.34.93,40.67.06,45.43.06c13.26,0,13.44,7.78,13.44,16.08v15.91h5.77v2.61ZM53.4,20.9c-.95-2.61-3.33-5.86-7.49-5.86-5.11,0-9.69,3.31-9.69,9.29,0,4.99,4.46,8.01,8.74,8.01,2.97,0,6.84-1.74,8.44-5.57v-5.86Z"/>
        <path class="cls-2" d="M67.54,11.03V.87h2.62v2.55l-.18.99h.48l.36-1.05c1.78-1.74,4.46-3.37,9.39-3.37,8.68,0,11.77,5.05,11.77,8.71,0,2.21-.48,6.97-7.91,7.95v.46c5.35.06,10.17,3.37,10.17,8.65s-5.29,9.7-15.76,9.7c-5.77,0-10.88-1.51-14.09-7.14l3.21-2.61c1.37,4.76,5.89,7.43,11.65,7.43s8.5-3.95,8.5-7.26c0-7.14-6.36-7.43-9.87-7.43h-2.44v-2.32h2.32c4.52,0,8.5-1.97,8.5-7.03,0-3.6-2.38-6.39-6.12-6.39-6.36,0-10.05,3.31-9.93,8.25h-2.68v.06Z"/>
        <path class="cls-2" d="M104.77,18.46c0,3.77,1.07,14.17,11.83,14.17,4.76,0,8.5-1.63,12.43-5.46l1.9,1.97c-3.51,4.01-9.57,6.27-14.81,6.27-8.68,0-18.02-5.28-18.02-17.83S106.79.06,114.64.06c8.44,0,16.89,5.57,16.29,18.41h-26.16ZM124.45,16.14c0-8.71-4.34-13.82-9.99-13.82s-9.99,6.15-9.69,13.82h19.68Z"/>
        <path class="cls-2" d="M142.17,32.11h5.59V3.48h-9.57v7.61h-4.1V.93h33.24v10.16h-4.16V3.48h-9.51v28.63h5.59v2.55h-17.06v-2.55Z"/>
        <path class="cls-2" d="M204.3,34.66h-11.24v-3.08c-2.5,2.55-6.9,3.89-10.58,3.89-8.32,0-12.6-5.92-12.6-11.21,0-6.15,4.82-12.31,13.08-12.31,4.1,0,7.79,1.34,10.11,4.18v-5.28c0-6.68-4.22-8.36-7.79-8.36-5.11,0-8.98,3.14-9.63,3.72l-2.08-2.85c3.51-2.5,6.84-3.37,11.54-3.37,13.26,0,13.44,7.72,13.44,16.08v15.91h5.77v2.67ZM193.01,20.9c-.95-2.61-3.33-5.86-7.49-5.86-5.11,0-9.69,3.31-9.69,9.29,0,4.99,4.46,8.01,8.74,8.01,2.97,0,6.84-1.74,8.44-5.57v-5.86Z"/>
        <path class="cls-2" d="M230.29.99v5.34h.36c1.72-4.01,4.16-6.15,7.97-6.15.95,0,3.86.23,5.59,2.44l-2.97,4.7c-1.49-2.21-3.27-2.73-4.76-2.73-3.39,0-6.24,4.59-6.24,9.7v17.88h5.65v2.55h-17.07v-2.55h5.65V3.54h-5.65V.99h11.48Z"/>
        <path class="cls-2" d="M258.05.75v22.65c0,1.74,0,8.94,7.55,8.94,4.76,0,8.86-2.85,8.86-9.7V3.31h-5.65V.75h11.48v31.18h5.65v2.55h-11.48v-2.73l.36-1.68h-.42l-.89,1.63c-3.27,3.37-7.31,3.72-10.11,3.72-11.24,0-11.24-9.64-11.24-12.37V3.31h-5.65V.75h11.53Z"/>
      </g>
    </mask>
    <mask id="mask-2" x="-1" y="-1" width="288" height="37" maskUnits="userSpaceOnUse">
      <g id="path-1-outside-1_3001_17004-3" data-name="path-1-outside-1 3001 17004">
        <rect class="cls-3" x="-1" y="-1" width="288" height="37"/>
        <path class="cls-2" d="M24.02,11.03V3.14h-12.55v28.63h5.65v2.55H0v-2.55h5.65V3.14H0V.58h28.18v10.45h-4.16Z"/>
        <path class="cls-2" d="M64.63,34.66h-11.24v-3.08c-2.5,2.55-6.9,3.89-10.58,3.89-8.32,0-12.61-5.92-12.61-11.21,0-6.15,4.82-12.31,13.14-12.31,4.1,0,7.79,1.34,10.11,4.18v-5.28c0-6.68-4.22-8.36-7.79-8.36-5.11,0-8.98,3.14-9.63,3.72l-2.14-2.79C37.34.93,40.67.06,45.43.06c13.26,0,13.44,7.78,13.44,16.08v15.91h5.77v2.61ZM53.4,20.9c-.95-2.61-3.33-5.86-7.49-5.86-5.11,0-9.69,3.31-9.69,9.29,0,4.99,4.46,8.01,8.74,8.01,2.97,0,6.84-1.74,8.44-5.57v-5.86Z"/>
        <path class="cls-2" d="M67.54,11.03V.87h2.62v2.55l-.18.99h.48l.36-1.05c1.78-1.74,4.46-3.37,9.39-3.37,8.68,0,11.77,5.05,11.77,8.71,0,2.21-.48,6.97-7.91,7.95v.46c5.35.06,10.17,3.37,10.17,8.65s-5.29,9.7-15.76,9.7c-5.77,0-10.88-1.51-14.09-7.14l3.21-2.61c1.37,4.76,5.89,7.43,11.65,7.43s8.5-3.95,8.5-7.26c0-7.14-6.36-7.43-9.87-7.43h-2.44v-2.32h2.32c4.52,0,8.5-1.97,8.5-7.03,0-3.6-2.38-6.39-6.12-6.39-6.36,0-10.05,3.31-9.93,8.25h-2.68v.06Z"/>
        <path class="cls-2" d="M104.77,18.46c0,3.77,1.07,14.17,11.83,14.17,4.76,0,8.5-1.63,12.43-5.46l1.9,1.97c-3.51,4.01-9.57,6.27-14.81,6.27-8.68,0-18.02-5.28-18.02-17.83S106.79.06,114.64.06c8.44,0,16.89,5.57,16.29,18.41h-26.16ZM124.45,16.14c0-8.71-4.34-13.82-9.99-13.82s-9.99,6.15-9.69,13.82h19.68Z"/>
        <path class="cls-2" d="M142.17,32.11h5.59V3.48h-9.57v7.61h-4.1V.93h33.24v10.16h-4.16V3.48h-9.51v28.63h5.59v2.55h-17.06v-2.55Z"/>
        <path class="cls-2" d="M204.3,34.66h-11.24v-3.08c-2.5,2.55-6.9,3.89-10.58,3.89-8.32,0-12.6-5.92-12.6-11.21,0-6.15,4.82-12.31,13.08-12.31,4.1,0,7.79,1.34,10.11,4.18v-5.28c0-6.68-4.22-8.36-7.79-8.36-5.11,0-8.98,3.14-9.63,3.72l-2.08-2.85c3.51-2.5,6.84-3.37,11.54-3.37,13.26,0,13.44,7.72,13.44,16.08v15.91h5.77v2.67ZM193.01,20.9c-.95-2.61-3.33-5.86-7.49-5.86-5.11,0-9.69,3.31-9.69,9.29,0,4.99,4.46,8.01,8.74,8.01,2.97,0,6.84-1.74,8.44-5.57v-5.86Z"/>
        <path class="cls-2" d="M230.29.99v5.34h.36c1.72-4.01,4.16-6.15,7.97-6.15.95,0,3.86.23,5.59,2.44l-2.97,4.7c-1.49-2.21-3.27-2.73-4.76-2.73-3.39,0-6.24,4.59-6.24,9.7v17.88h5.65v2.55h-17.07v-2.55h5.65V3.54h-5.65V.99h11.48Z"/>
        <path class="cls-2" d="M258.05.75v22.65c0,1.74,0,8.94,7.55,8.94,4.76,0,8.86-2.85,8.86-9.7V3.31h-5.65V.75h11.48v31.18h5.65v2.55h-11.48v-2.73l.36-1.68h-.42l-.89,1.63c-3.27,3.37-7.31,3.72-10.11,3.72-11.24,0-11.24-9.64-11.24-12.37V3.31h-5.65V.75h11.53Z"/>
      </g>
    </mask>
    <mask id="mask-3" x="-1" y="-1" width="288" height="37" maskUnits="userSpaceOnUse">
      <g id="path-1-outside-1_3001_17004-4" data-name="path-1-outside-1 3001 17004">
        <rect class="cls-3" x="-1" y="-1" width="288" height="37"/>
        <path class="cls-2" d="M24.02,11.03V3.14h-12.55v28.63h5.65v2.55H0v-2.55h5.65V3.14H0V.58h28.18v10.45h-4.16Z"/>
        <path class="cls-2" d="M64.63,34.66h-11.24v-3.08c-2.5,2.55-6.9,3.89-10.58,3.89-8.32,0-12.61-5.92-12.61-11.21,0-6.15,4.82-12.31,13.14-12.31,4.1,0,7.79,1.34,10.11,4.18v-5.28c0-6.68-4.22-8.36-7.79-8.36-5.11,0-8.98,3.14-9.63,3.72l-2.14-2.79C37.34.93,40.67.06,45.43.06c13.26,0,13.44,7.78,13.44,16.08v15.91h5.77v2.61ZM53.4,20.9c-.95-2.61-3.33-5.86-7.49-5.86-5.11,0-9.69,3.31-9.69,9.29,0,4.99,4.46,8.01,8.74,8.01,2.97,0,6.84-1.74,8.44-5.57v-5.86Z"/>
        <path class="cls-2" d="M67.54,11.03V.87h2.62v2.55l-.18.99h.48l.36-1.05c1.78-1.74,4.46-3.37,9.39-3.37,8.68,0,11.77,5.05,11.77,8.71,0,2.21-.48,6.97-7.91,7.95v.46c5.35.06,10.17,3.37,10.17,8.65s-5.29,9.7-15.76,9.7c-5.77,0-10.88-1.51-14.09-7.14l3.21-2.61c1.37,4.76,5.89,7.43,11.65,7.43s8.5-3.95,8.5-7.26c0-7.14-6.36-7.43-9.87-7.43h-2.44v-2.32h2.32c4.52,0,8.5-1.97,8.5-7.03,0-3.6-2.38-6.39-6.12-6.39-6.36,0-10.05,3.31-9.93,8.25h-2.68v.06Z"/>
        <path class="cls-2" d="M104.77,18.46c0,3.77,1.07,14.17,11.83,14.17,4.76,0,8.5-1.63,12.43-5.46l1.9,1.97c-3.51,4.01-9.57,6.27-14.81,6.27-8.68,0-18.02-5.28-18.02-17.83S106.79.06,114.64.06c8.44,0,16.89,5.57,16.29,18.41h-26.16ZM124.45,16.14c0-8.71-4.34-13.82-9.99-13.82s-9.99,6.15-9.69,13.82h19.68Z"/>
        <path class="cls-2" d="M142.17,32.11h5.59V3.48h-9.57v7.61h-4.1V.93h33.24v10.16h-4.16V3.48h-9.51v28.63h5.59v2.55h-17.06v-2.55Z"/>
        <path class="cls-2" d="M204.3,34.66h-11.24v-3.08c-2.5,2.55-6.9,3.89-10.58,3.89-8.32,0-12.6-5.92-12.6-11.21,0-6.15,4.82-12.31,13.08-12.31,4.1,0,7.79,1.34,10.11,4.18v-5.28c0-6.68-4.22-8.36-7.79-8.36-5.11,0-8.98,3.14-9.63,3.72l-2.08-2.85c3.51-2.5,6.84-3.37,11.54-3.37,13.26,0,13.44,7.72,13.44,16.08v15.91h5.77v2.67ZM193.01,20.9c-.95-2.61-3.33-5.86-7.49-5.86-5.11,0-9.69,3.31-9.69,9.29,0,4.99,4.46,8.01,8.74,8.01,2.97,0,6.84-1.74,8.44-5.57v-5.86Z"/>
        <path class="cls-2" d="M230.29.99v5.34h.36c1.72-4.01,4.16-6.15,7.97-6.15.95,0,3.86.23,5.59,2.44l-2.97,4.7c-1.49-2.21-3.27-2.73-4.76-2.73-3.39,0-6.24,4.59-6.24,9.7v17.88h5.65v2.55h-17.07v-2.55h5.65V3.54h-5.65V.99h11.48Z"/>
        <path class="cls-2" d="M258.05.75v22.65c0,1.74,0,8.94,7.55,8.94,4.76,0,8.86-2.85,8.86-9.7V3.31h-5.65V.75h11.48v31.18h5.65v2.55h-11.48v-2.73l.36-1.68h-.42l-.89,1.63c-3.27,3.37-7.31,3.72-10.11,3.72-11.24,0-11.24-9.64-11.24-12.37V3.31h-5.65V.75h11.53Z"/>
      </g>
    </mask>
    <mask id="mask-4" x="-1" y="-1" width="288" height="37" maskUnits="userSpaceOnUse">
      <g id="path-1-outside-1_3001_17004-5" data-name="path-1-outside-1 3001 17004">
        <rect class="cls-3" x="-1" y="-1" width="288" height="37"/>
        <path class="cls-2" d="M24.02,11.03V3.14h-12.55v28.63h5.65v2.55H0v-2.55h5.65V3.14H0V.58h28.18v10.45h-4.16Z"/>
        <path class="cls-2" d="M64.63,34.66h-11.24v-3.08c-2.5,2.55-6.9,3.89-10.58,3.89-8.32,0-12.61-5.92-12.61-11.21,0-6.15,4.82-12.31,13.14-12.31,4.1,0,7.79,1.34,10.11,4.18v-5.28c0-6.68-4.22-8.36-7.79-8.36-5.11,0-8.98,3.14-9.63,3.72l-2.14-2.79C37.34.93,40.67.06,45.43.06c13.26,0,13.44,7.78,13.44,16.08v15.91h5.77v2.61ZM53.4,20.9c-.95-2.61-3.33-5.86-7.49-5.86-5.11,0-9.69,3.31-9.69,9.29,0,4.99,4.46,8.01,8.74,8.01,2.97,0,6.84-1.74,8.44-5.57v-5.86Z"/>
        <path class="cls-2" d="M67.54,11.03V.87h2.62v2.55l-.18.99h.48l.36-1.05c1.78-1.74,4.46-3.37,9.39-3.37,8.68,0,11.77,5.05,11.77,8.71,0,2.21-.48,6.97-7.91,7.95v.46c5.35.06,10.17,3.37,10.17,8.65s-5.29,9.7-15.76,9.7c-5.77,0-10.88-1.51-14.09-7.14l3.21-2.61c1.37,4.76,5.89,7.43,11.65,7.43s8.5-3.95,8.5-7.26c0-7.14-6.36-7.43-9.87-7.43h-2.44v-2.32h2.32c4.52,0,8.5-1.97,8.5-7.03,0-3.6-2.38-6.39-6.12-6.39-6.36,0-10.05,3.31-9.93,8.25h-2.68v.06Z"/>
        <path class="cls-2" d="M104.77,18.46c0,3.77,1.07,14.17,11.83,14.17,4.76,0,8.5-1.63,12.43-5.46l1.9,1.97c-3.51,4.01-9.57,6.27-14.81,6.27-8.68,0-18.02-5.28-18.02-17.83S106.79.06,114.64.06c8.44,0,16.89,5.57,16.29,18.41h-26.16ZM124.45,16.14c0-8.71-4.34-13.82-9.99-13.82s-9.99,6.15-9.69,13.82h19.68Z"/>
        <path class="cls-2" d="M142.17,32.11h5.59V3.48h-9.57v7.61h-4.1V.93h33.24v10.16h-4.16V3.48h-9.51v28.63h5.59v2.55h-17.06v-2.55Z"/>
        <path class="cls-2" d="M204.3,34.66h-11.24v-3.08c-2.5,2.55-6.9,3.89-10.58,3.89-8.32,0-12.6-5.92-12.6-11.21,0-6.15,4.82-12.31,13.08-12.31,4.1,0,7.79,1.34,10.11,4.18v-5.28c0-6.68-4.22-8.36-7.79-8.36-5.11,0-8.98,3.14-9.63,3.72l-2.08-2.85c3.51-2.5,6.84-3.37,11.54-3.37,13.26,0,13.44,7.72,13.44,16.08v15.91h5.77v2.67ZM193.01,20.9c-.95-2.61-3.33-5.86-7.49-5.86-5.11,0-9.69,3.31-9.69,9.29,0,4.99,4.46,8.01,8.74,8.01,2.97,0,6.84-1.74,8.44-5.57v-5.86Z"/>
        <path class="cls-2" d="M230.29.99v5.34h.36c1.72-4.01,4.16-6.15,7.97-6.15.95,0,3.86.23,5.59,2.44l-2.97,4.7c-1.49-2.21-3.27-2.73-4.76-2.73-3.39,0-6.24,4.59-6.24,9.7v17.88h5.65v2.55h-17.07v-2.55h5.65V3.54h-5.65V.99h11.48Z"/>
        <path class="cls-2" d="M258.05.75v22.65c0,1.74,0,8.94,7.55,8.94,4.76,0,8.86-2.85,8.86-9.7V3.31h-5.65V.75h11.48v31.18h5.65v2.55h-11.48v-2.73l.36-1.68h-.42l-.89,1.63c-3.27,3.37-7.31,3.72-10.11,3.72-11.24,0-11.24-9.64-11.24-12.37V3.31h-5.65V.75h11.53Z"/>
      </g>
    </mask>
    <mask id="mask-5" x="-1" y="-1" width="288" height="37" maskUnits="userSpaceOnUse">
      <g id="path-1-outside-1_3001_17004-6" data-name="path-1-outside-1 3001 17004">
        <rect class="cls-3" x="-1" y="-1" width="288" height="37"/>
        <path class="cls-2" d="M24.02,11.03V3.14h-12.55v28.63h5.65v2.55H0v-2.55h5.65V3.14H0V.58h28.18v10.45h-4.16Z"/>
        <path class="cls-2" d="M64.63,34.66h-11.24v-3.08c-2.5,2.55-6.9,3.89-10.58,3.89-8.32,0-12.61-5.92-12.61-11.21,0-6.15,4.82-12.31,13.14-12.31,4.1,0,7.79,1.34,10.11,4.18v-5.28c0-6.68-4.22-8.36-7.79-8.36-5.11,0-8.98,3.14-9.63,3.72l-2.14-2.79C37.34.93,40.67.06,45.43.06c13.26,0,13.44,7.78,13.44,16.08v15.91h5.77v2.61ZM53.4,20.9c-.95-2.61-3.33-5.86-7.49-5.86-5.11,0-9.69,3.31-9.69,9.29,0,4.99,4.46,8.01,8.74,8.01,2.97,0,6.84-1.74,8.44-5.57v-5.86Z"/>
        <path class="cls-2" d="M67.54,11.03V.87h2.62v2.55l-.18.99h.48l.36-1.05c1.78-1.74,4.46-3.37,9.39-3.37,8.68,0,11.77,5.05,11.77,8.71,0,2.21-.48,6.97-7.91,7.95v.46c5.35.06,10.17,3.37,10.17,8.65s-5.29,9.7-15.76,9.7c-5.77,0-10.88-1.51-14.09-7.14l3.21-2.61c1.37,4.76,5.89,7.43,11.65,7.43s8.5-3.95,8.5-7.26c0-7.14-6.36-7.43-9.87-7.43h-2.44v-2.32h2.32c4.52,0,8.5-1.97,8.5-7.03,0-3.6-2.38-6.39-6.12-6.39-6.36,0-10.05,3.31-9.93,8.25h-2.68v.06Z"/>
        <path class="cls-2" d="M104.77,18.46c0,3.77,1.07,14.17,11.83,14.17,4.76,0,8.5-1.63,12.43-5.46l1.9,1.97c-3.51,4.01-9.57,6.27-14.81,6.27-8.68,0-18.02-5.28-18.02-17.83S106.79.06,114.64.06c8.44,0,16.89,5.57,16.29,18.41h-26.16ZM124.45,16.14c0-8.71-4.34-13.82-9.99-13.82s-9.99,6.15-9.69,13.82h19.68Z"/>
        <path class="cls-2" d="M142.17,32.11h5.59V3.48h-9.57v7.61h-4.1V.93h33.24v10.16h-4.16V3.48h-9.51v28.63h5.59v2.55h-17.06v-2.55Z"/>
        <path class="cls-2" d="M204.3,34.66h-11.24v-3.08c-2.5,2.55-6.9,3.89-10.58,3.89-8.32,0-12.6-5.92-12.6-11.21,0-6.15,4.82-12.31,13.08-12.31,4.1,0,7.79,1.34,10.11,4.18v-5.28c0-6.68-4.22-8.36-7.79-8.36-5.11,0-8.98,3.14-9.63,3.72l-2.08-2.85c3.51-2.5,6.84-3.37,11.54-3.37,13.26,0,13.44,7.72,13.44,16.08v15.91h5.77v2.67ZM193.01,20.9c-.95-2.61-3.33-5.86-7.49-5.86-5.11,0-9.69,3.31-9.69,9.29,0,4.99,4.46,8.01,8.74,8.01,2.97,0,6.84-1.74,8.44-5.57v-5.86Z"/>
        <path class="cls-2" d="M230.29.99v5.34h.36c1.72-4.01,4.16-6.15,7.97-6.15.95,0,3.86.23,5.59,2.44l-2.97,4.7c-1.49-2.21-3.27-2.73-4.76-2.73-3.39,0-6.24,4.59-6.24,9.7v17.88h5.65v2.55h-17.07v-2.55h5.65V3.54h-5.65V.99h11.48Z"/>
        <path class="cls-2" d="M258.05.75v22.65c0,1.74,0,8.94,7.55,8.94,4.76,0,8.86-2.85,8.86-9.7V3.31h-5.65V.75h11.48v31.18h5.65v2.55h-11.48v-2.73l.36-1.68h-.42l-.89,1.63c-3.27,3.37-7.31,3.72-10.11,3.72-11.24,0-11.24-9.64-11.24-12.37V3.31h-5.65V.75h11.53Z"/>
      </g>
    </mask>
    <mask id="mask-6" x="-1" y="-1" width="288" height="37" maskUnits="userSpaceOnUse">
      <g id="path-1-outside-1_3001_17004-7" data-name="path-1-outside-1 3001 17004">
        <rect class="cls-3" x="-1" y="-1" width="288" height="37"/>
        <path class="cls-2" d="M24.02,11.03V3.14h-12.55v28.63h5.65v2.55H0v-2.55h5.65V3.14H0V.58h28.18v10.45h-4.16Z"/>
        <path class="cls-2" d="M64.63,34.66h-11.24v-3.08c-2.5,2.55-6.9,3.89-10.58,3.89-8.32,0-12.61-5.92-12.61-11.21,0-6.15,4.82-12.31,13.14-12.31,4.1,0,7.79,1.34,10.11,4.18v-5.28c0-6.68-4.22-8.36-7.79-8.36-5.11,0-8.98,3.14-9.63,3.72l-2.14-2.79C37.34.93,40.67.06,45.43.06c13.26,0,13.44,7.78,13.44,16.08v15.91h5.77v2.61ZM53.4,20.9c-.95-2.61-3.33-5.86-7.49-5.86-5.11,0-9.69,3.31-9.69,9.29,0,4.99,4.46,8.01,8.74,8.01,2.97,0,6.84-1.74,8.44-5.57v-5.86Z"/>
        <path class="cls-2" d="M67.54,11.03V.87h2.62v2.55l-.18.99h.48l.36-1.05c1.78-1.74,4.46-3.37,9.39-3.37,8.68,0,11.77,5.05,11.77,8.71,0,2.21-.48,6.97-7.91,7.95v.46c5.35.06,10.17,3.37,10.17,8.65s-5.29,9.7-15.76,9.7c-5.77,0-10.88-1.51-14.09-7.14l3.21-2.61c1.37,4.76,5.89,7.43,11.65,7.43s8.5-3.95,8.5-7.26c0-7.14-6.36-7.43-9.87-7.43h-2.44v-2.32h2.32c4.52,0,8.5-1.97,8.5-7.03,0-3.6-2.38-6.39-6.12-6.39-6.36,0-10.05,3.31-9.93,8.25h-2.68v.06Z"/>
        <path class="cls-2" d="M104.77,18.46c0,3.77,1.07,14.17,11.83,14.17,4.76,0,8.5-1.63,12.43-5.46l1.9,1.97c-3.51,4.01-9.57,6.27-14.81,6.27-8.68,0-18.02-5.28-18.02-17.83S106.79.06,114.64.06c8.44,0,16.89,5.57,16.29,18.41h-26.16ZM124.45,16.14c0-8.71-4.34-13.82-9.99-13.82s-9.99,6.15-9.69,13.82h19.68Z"/>
        <path class="cls-2" d="M142.17,32.11h5.59V3.48h-9.57v7.61h-4.1V.93h33.24v10.16h-4.16V3.48h-9.51v28.63h5.59v2.55h-17.06v-2.55Z"/>
        <path class="cls-2" d="M204.3,34.66h-11.24v-3.08c-2.5,2.55-6.9,3.89-10.58,3.89-8.32,0-12.6-5.92-12.6-11.21,0-6.15,4.82-12.31,13.08-12.31,4.1,0,7.79,1.34,10.11,4.18v-5.28c0-6.68-4.22-8.36-7.79-8.36-5.11,0-8.98,3.14-9.63,3.72l-2.08-2.85c3.51-2.5,6.84-3.37,11.54-3.37,13.26,0,13.44,7.72,13.44,16.08v15.91h5.77v2.67ZM193.01,20.9c-.95-2.61-3.33-5.86-7.49-5.86-5.11,0-9.69,3.31-9.69,9.29,0,4.99,4.46,8.01,8.74,8.01,2.97,0,6.84-1.74,8.44-5.57v-5.86Z"/>
        <path class="cls-2" d="M230.29.99v5.34h.36c1.72-4.01,4.16-6.15,7.97-6.15.95,0,3.86.23,5.59,2.44l-2.97,4.7c-1.49-2.21-3.27-2.73-4.76-2.73-3.39,0-6.24,4.59-6.24,9.7v17.88h5.65v2.55h-17.07v-2.55h5.65V3.54h-5.65V.99h11.48Z"/>
        <path class="cls-2" d="M258.05.75v22.65c0,1.74,0,8.94,7.55,8.94,4.76,0,8.86-2.85,8.86-9.7V3.31h-5.65V.75h11.48v31.18h5.65v2.55h-11.48v-2.73l.36-1.68h-.42l-.89,1.63c-3.27,3.37-7.31,3.72-10.11,3.72-11.24,0-11.24-9.64-11.24-12.37V3.31h-5.65V.75h11.53Z"/>
      </g>
    </mask>
    <mask id="mask-7" x="-1" y="-1" width="288" height="37" maskUnits="userSpaceOnUse">
      <g id="path-1-outside-1_3001_17004-8" data-name="path-1-outside-1 3001 17004">
        <rect class="cls-3" x="-1" y="-1" width="288" height="37"/>
        <path class="cls-2" d="M24.02,11.03V3.14h-12.55v28.63h5.65v2.55H0v-2.55h5.65V3.14H0V.58h28.18v10.45h-4.16Z"/>
        <path class="cls-2" d="M64.63,34.66h-11.24v-3.08c-2.5,2.55-6.9,3.89-10.58,3.89-8.32,0-12.61-5.92-12.61-11.21,0-6.15,4.82-12.31,13.14-12.31,4.1,0,7.79,1.34,10.11,4.18v-5.28c0-6.68-4.22-8.36-7.79-8.36-5.11,0-8.98,3.14-9.63,3.72l-2.14-2.79C37.34.93,40.67.06,45.43.06c13.26,0,13.44,7.78,13.44,16.08v15.91h5.77v2.61ZM53.4,20.9c-.95-2.61-3.33-5.86-7.49-5.86-5.11,0-9.69,3.31-9.69,9.29,0,4.99,4.46,8.01,8.74,8.01,2.97,0,6.84-1.74,8.44-5.57v-5.86Z"/>
        <path class="cls-2" d="M67.54,11.03V.87h2.62v2.55l-.18.99h.48l.36-1.05c1.78-1.74,4.46-3.37,9.39-3.37,8.68,0,11.77,5.05,11.77,8.71,0,2.21-.48,6.97-7.91,7.95v.46c5.35.06,10.17,3.37,10.17,8.65s-5.29,9.7-15.76,9.7c-5.77,0-10.88-1.51-14.09-7.14l3.21-2.61c1.37,4.76,5.89,7.43,11.65,7.43s8.5-3.95,8.5-7.26c0-7.14-6.36-7.43-9.87-7.43h-2.44v-2.32h2.32c4.52,0,8.5-1.97,8.5-7.03,0-3.6-2.38-6.39-6.12-6.39-6.36,0-10.05,3.31-9.93,8.25h-2.68v.06Z"/>
        <path class="cls-2" d="M104.77,18.46c0,3.77,1.07,14.17,11.83,14.17,4.76,0,8.5-1.63,12.43-5.46l1.9,1.97c-3.51,4.01-9.57,6.27-14.81,6.27-8.68,0-18.02-5.28-18.02-17.83S106.79.06,114.64.06c8.44,0,16.89,5.57,16.29,18.41h-26.16ZM124.45,16.14c0-8.71-4.34-13.82-9.99-13.82s-9.99,6.15-9.69,13.82h19.68Z"/>
        <path class="cls-2" d="M142.17,32.11h5.59V3.48h-9.57v7.61h-4.1V.93h33.24v10.16h-4.16V3.48h-9.51v28.63h5.59v2.55h-17.06v-2.55Z"/>
        <path class="cls-2" d="M204.3,34.66h-11.24v-3.08c-2.5,2.55-6.9,3.89-10.58,3.89-8.32,0-12.6-5.92-12.6-11.21,0-6.15,4.82-12.31,13.08-12.31,4.1,0,7.79,1.34,10.11,4.18v-5.28c0-6.68-4.22-8.36-7.79-8.36-5.11,0-8.98,3.14-9.63,3.72l-2.08-2.85c3.51-2.5,6.84-3.37,11.54-3.37,13.26,0,13.44,7.72,13.44,16.08v15.91h5.77v2.67ZM193.01,20.9c-.95-2.61-3.33-5.86-7.49-5.86-5.11,0-9.69,3.31-9.69,9.29,0,4.99,4.46,8.01,8.74,8.01,2.97,0,6.84-1.74,8.44-5.57v-5.86Z"/>
        <path class="cls-2" d="M230.29.99v5.34h.36c1.72-4.01,4.16-6.15,7.97-6.15.95,0,3.86.23,5.59,2.44l-2.97,4.7c-1.49-2.21-3.27-2.73-4.76-2.73-3.39,0-6.24,4.59-6.24,9.7v17.88h5.65v2.55h-17.07v-2.55h5.65V3.54h-5.65V.99h11.48Z"/>
        <path class="cls-2" d="M258.05.75v22.65c0,1.74,0,8.94,7.55,8.94,4.76,0,8.86-2.85,8.86-9.7V3.31h-5.65V.75h11.48v31.18h5.65v2.55h-11.48v-2.73l.36-1.68h-.42l-.89,1.63c-3.27,3.37-7.31,3.72-10.11,3.72-11.24,0-11.24-9.64-11.24-12.37V3.31h-5.65V.75h11.53Z"/>
      </g>
    </mask>
  </defs>
  <path class="cls-3" d="M24.02,11.03V3.14h-12.55v28.63h5.65v2.55H0v-2.55h5.65V3.14H0V.58h28.18v10.45h-4.16Z"/>
  <path class="cls-3" d="M64.63,34.66h-11.24v-3.08c-2.5,2.55-6.9,3.89-10.58,3.89-8.32,0-12.61-5.92-12.61-11.21,0-6.15,4.82-12.31,13.14-12.31,4.1,0,7.79,1.34,10.11,4.18v-5.28c0-6.68-4.22-8.36-7.79-8.36-5.11,0-8.98,3.14-9.63,3.72l-2.14-2.79C37.34.93,40.67.06,45.43.06c13.26,0,13.44,7.78,13.44,16.08v15.91h5.77v2.61ZM53.4,20.9c-.95-2.61-3.33-5.86-7.49-5.86-5.11,0-9.69,3.31-9.69,9.29,0,4.99,4.46,8.01,8.74,8.01,2.97,0,6.84-1.74,8.44-5.57v-5.86Z"/>
  <path class="cls-3" d="M67.54,11.03V.87h2.62v2.55l-.18.99h.48l.36-1.05c1.78-1.74,4.46-3.37,9.39-3.37,8.68,0,11.77,5.05,11.77,8.71,0,2.21-.48,6.97-7.91,7.95v.46c5.35.06,10.17,3.37,10.17,8.65s-5.29,9.7-15.76,9.7c-5.77,0-10.88-1.51-14.09-7.14l3.21-2.61c1.37,4.76,5.89,7.43,11.65,7.43s8.5-3.95,8.5-7.26c0-7.14-6.36-7.43-9.87-7.43h-2.44v-2.32h2.32c4.52,0,8.5-1.97,8.5-7.03,0-3.6-2.38-6.39-6.12-6.39-6.36,0-10.05,3.31-9.93,8.25h-2.68v.06Z"/>
  <path class="cls-3" d="M104.77,18.46c0,3.77,1.07,14.17,11.83,14.17,4.76,0,8.5-1.63,12.43-5.46l1.9,1.97c-3.51,4.01-9.57,6.27-14.81,6.27-8.68,0-18.02-5.28-18.02-17.83S106.79.06,114.64.06c8.44,0,16.89,5.57,16.29,18.41h-26.16ZM124.45,16.14c0-8.71-4.34-13.82-9.99-13.82s-9.99,6.15-9.69,13.82h19.68Z"/>
  <path class="cls-3" d="M142.17,32.11h5.59V3.48h-9.57v7.61h-4.1V.93h33.24v10.16h-4.16V3.48h-9.51v28.63h5.59v2.55h-17.06v-2.55Z"/>
  <path class="cls-3" d="M204.3,34.66h-11.24v-3.08c-2.5,2.55-6.9,3.89-10.58,3.89-8.32,0-12.6-5.92-12.6-11.21,0-6.15,4.82-12.31,13.08-12.31,4.1,0,7.79,1.34,10.11,4.18v-5.28c0-6.68-4.22-8.36-7.79-8.36-5.11,0-8.98,3.14-9.63,3.72l-2.08-2.85c3.51-2.5,6.84-3.37,11.54-3.37,13.26,0,13.44,7.72,13.44,16.08v15.91h5.77v2.67ZM193.01,20.9c-.95-2.61-3.33-5.86-7.49-5.86-5.11,0-9.69,3.31-9.69,9.29,0,4.99,4.46,8.01,8.74,8.01,2.97,0,6.84-1.74,8.44-5.57v-5.86Z"/>
  <path class="cls-3" d="M230.29.99v5.34h.36c1.72-4.01,4.16-6.15,7.97-6.15.95,0,3.86.23,5.59,2.44l-2.97,4.7c-1.49-2.21-3.27-2.73-4.76-2.73-3.39,0-6.24,4.59-6.24,9.7v17.88h5.65v2.55h-17.07v-2.55h5.65V3.54h-5.65V.99h11.48Z"/>
  <path class="cls-3" d="M258.05.75v22.65c0,1.74,0,8.94,7.55,8.94,4.76,0,8.86-2.85,8.86-9.7V3.31h-5.65V.75h11.48v31.18h5.65v2.55h-11.48v-2.73l.36-1.68h-.42l-.89,1.63c-3.27,3.37-7.31,3.72-10.11,3.72-11.24,0-11.24-9.64-11.24-12.37V3.31h-5.65V.75h11.53Z"/>
  <g class="cls-4">
    <path class="cls-5" d="M24.02,11.03V3.14h-12.55v28.63h5.65v2.55H0v-2.55h5.65V3.14H0V.58h28.18v10.45h-4.16Z"/>
  </g>
  <g class="cls-10">
    <path class="cls-5" d="M64.63,34.66h-11.24v-3.08c-2.5,2.55-6.9,3.89-10.58,3.89-8.32,0-12.61-5.92-12.61-11.21,0-6.15,4.82-12.31,13.14-12.31,4.1,0,7.79,1.34,10.11,4.18v-5.28c0-6.68-4.22-8.36-7.79-8.36-5.11,0-8.98,3.14-9.63,3.72l-2.14-2.79C37.34.93,40.67.06,45.43.06c13.26,0,13.44,7.78,13.44,16.08v15.91h5.77v2.61ZM53.4,20.9c-.95-2.61-3.33-5.86-7.49-5.86-5.11,0-9.69,3.31-9.69,9.29,0,4.99,4.46,8.01,8.74,8.01,2.97,0,6.84-1.74,8.44-5.57v-5.86Z"/>
  </g>
  <g class="cls-7">
    <path class="cls-5" d="M67.54,11.03V.87h2.62v2.55l-.18.99h.48l.36-1.05c1.78-1.74,4.46-3.37,9.39-3.37,8.68,0,11.77,5.05,11.77,8.71,0,2.21-.48,6.97-7.91,7.95v.46c5.35.06,10.17,3.37,10.17,8.65s-5.29,9.7-15.76,9.7c-5.77,0-10.88-1.51-14.09-7.14l3.21-2.61c1.37,4.76,5.89,7.43,11.65,7.43s8.5-3.95,8.5-7.26c0-7.14-6.36-7.43-9.87-7.43h-2.44v-2.32h2.32c4.52,0,8.5-1.97,8.5-7.03,0-3.6-2.38-6.39-6.12-6.39-6.36,0-10.05,3.31-9.93,8.25h-2.68v.06Z"/>
  </g>
  <g class="cls-6">
    <path class="cls-5" d="M104.77,18.46c0,3.77,1.07,14.17,11.83,14.17,4.76,0,8.5-1.63,12.43-5.46l1.9,1.97c-3.51,4.01-9.57,6.27-14.81,6.27-8.68,0-18.02-5.28-18.02-17.83S106.79.06,114.64.06c8.44,0,16.89,5.57,16.29,18.41h-26.16ZM124.45,16.14c0-8.71-4.34-13.82-9.99-13.82s-9.99,6.15-9.69,13.82h19.68Z"/>
  </g>
  <g class="cls-9">
    <path class="cls-5" d="M142.17,32.11h5.59V3.48h-9.57v7.61h-4.1V.93h33.24v10.16h-4.16V3.48h-9.51v28.63h5.59v2.55h-17.06v-2.55Z"/>
  </g>
  <g class="cls-8">
    <path class="cls-5" d="M204.3,34.66h-11.24v-3.08c-2.5,2.55-6.9,3.89-10.58,3.89-8.32,0-12.6-5.92-12.6-11.21,0-6.15,4.82-12.31,13.08-12.31,4.1,0,7.79,1.34,10.11,4.18v-5.28c0-6.68-4.22-8.36-7.79-8.36-5.11,0-8.98,3.14-9.63,3.72l-2.08-2.85c3.51-2.5,6.84-3.37,11.54-3.37,13.26,0,13.44,7.72,13.44,16.08v15.91h5.77v2.67ZM193.01,20.9c-.95-2.61-3.33-5.86-7.49-5.86-5.11,0-9.69,3.31-9.69,9.29,0,4.99,4.46,8.01,8.74,8.01,2.97,0,6.84-1.74,8.44-5.57v-5.86Z"/>
  </g>
  <g class="cls-12">
    <path class="cls-5" d="M230.29.99v5.34h.36c1.72-4.01,4.16-6.15,7.97-6.15.95,0,3.86.23,5.59,2.44l-2.97,4.7c-1.49-2.21-3.27-2.73-4.76-2.73-3.39,0-6.24,4.59-6.24,9.7v17.88h5.65v2.55h-17.07v-2.55h5.65V3.54h-5.65V.99h11.48Z"/>
  </g>
  <g class="cls-11">
    <path class="cls-5" d="M258.05.75v22.65c0,1.74,0,8.94,7.55,8.94,4.76,0,8.86-2.85,8.86-9.7V3.31h-5.65V.75h11.48v31.18h5.65v2.55h-11.48v-2.73l.36-1.68h-.42l-.89,1.63c-3.27,3.37-7.31,3.72-10.11,3.72-11.24,0-11.24-9.64-11.24-12.37V3.31h-5.65V.75h11.53Z"/>
  </g>
  <ellipse class="cls-1" cx="211.38" cy="31.76" rx="3.63" ry="3.65"/>
</svg>